<svg xmlns="http://www.w3.org/2000/svg" style="display:none;">
  <symbol id="icon-grip-vertical" viewBox="0 0 24 24">
    <circle cx="9" cy="12" r="1"/><circle cx="9" cy="5" r="1"/><circle cx="9" cy="19" r="1"/>
    <circle cx="15" cy="12" r="1"/><circle cx="15" cy="5" r="1"/><circle cx="15" cy="19" r="1"/>
  </symbol>
  <symbol id="icon-arrow-up" viewBox="0 0 24 24">
    <path d="M12 19V5M5 12l7-7 7 7"/>
  </symbol>
  <symbol id="icon-arrow-down" viewBox="0 0 24 24">
    <path d="M12 5v14M5 12l7 7 7-7"/>
  </symbol>
  <symbol id="icon-trash" viewBox="0 0 24 24">
    <path d="M3 6h18M19 6v14a2 2 0 0 1-2 2H7a2 2 0 0 1-2-2V6m3 0V4a2 2 0 0 1 2-2h4a2 2 0 0 1 2 2v2"/>
  </symbol>
  <symbol id="icon-file-text" viewBox="0 0 24 24">
    <path d="M14 2H6a2 2 0 0 0-2 2v16a2 2 0 0 0 2 2h12a2 2 0 0 0 2-2V8z"/>
    <polyline points="14 2 14 8 20 8"/><line x1="16" y1="13" x2="8" y2="13"/><line x1="16" y1="17" x2="8" y2="17"/><polyline points="10 9 9 9 8 9"/>
  </symbol>
  <symbol id="icon-download" viewBox="0 0 24 24">
    <path d="M21 15v4a2 2 0 0 1-2 2H5a2 2 0 0 1-2-2v-4M7 10l5 5 5-5M12 15V3"/>
  </symbol>
  <symbol id="icon-refresh-cw" viewBox="0 0 24 24">
    <path d="M23 4v6h-6M1 20v-6h6M3.51 9a9 9 0 0 1 14.85-3.36L23 10M1 14l4.64 4.36A9 9 0 0 0 20.49 15"/>
  </symbol>
  <symbol id="icon-check" viewBox="0 0 24 24">
    <polyline points="20 6 9 17 4 12"/>
  </symbol>
  <symbol id="icon-image" viewBox="0 0 24 24">
    <rect x="3" y="3" width="18" height="18" rx="2" ry="2"/>
    <circle cx="8.5" cy="8.5" r="1.5"/><polyline points="21 15 16 10 5 21"/>
  </symbol>
  <symbol id="icon-plus" viewBox="0 0 24 24">
    <line x1="12" y1="5" x2="12" y2="19"/><line x1="5" y1="12" x2="19" y2="12"/>
  </symbol>
  <symbol id="icon-alert-triangle" viewBox="0 0 24 24">
    <path d="M10.29 3.86L1.82 18a2 2 0 0 0 1.71 3h16.94a2 2 0 0 0 1.71-3L13.71 3.86a2 2 0 0 0-3.42 0z"/>
    <line x1="12" y1="9" x2="12" y2="13"/><line x1="12" y1="17" x2="12.01" y2="17"/>
  </symbol>
  <symbol id="icon-wand" viewBox="0 0 24 24">
    <path d="M21 2l-7 7M3 21l7-7M21 2l-5 5-2-2 5-5zM3 21l5-5 2 2-5 5z"/>
  </symbol>
</svg>
